<svg width="504" height="122" viewBox="0 0 504 122" fill="none" xmlns="http://www.w3.org/2000/svg">
	<path fill-rule="evenodd" clip-rule="evenodd"
		  d="M16.1 58.1V66.4H16.3C18.5 63.2 21.2 60.8 24.3 59.1C27.4 57.4 31 56.5 35 56.5C38.9 56.5 42.4 57.3 45.6 58.8C48.8 60.3 51.2 62.9 52.9 66.7C54.7 64 57.2 61.6 60.2999 59.6C63.3999 57.5 67.0999 56.5 71.3999 56.5C74.5999 56.5 77.5999 56.9 80.3999 57.7C83.2 58.5 85.5 59.8 87.5 61.5C89.5 63.2 91 65.5 92.1 68.3C93.2 71.1 93.7999 74.5 93.7999 78.4V119.4H77V84.7C77 82.6 76.8999 80.7 76.7999 78.9C76.6 77.1 76.2 75.5 75.5 74.2C74.8 72.9 73.7 71.8 72.3999 71C70.9999 70.2 69.1 69.8 66.7999 69.8C64.3999 69.8 62.5 70.3 61.1 71.2C59.6 72.1 58.5 73.3 57.7 74.8C56.9 76.3 56.2999 77.9 56 79.8C55.7 81.7 55.6 83.5 55.6 85.4V119.5H38.6V85C38.6 83.2 38.5999 81.4 38.5 79.6C38.4 77.8 38.0999 76.2 37.5 74.7C36.9 73.2 35.9 72 34.5 71.1C33.0999 70.2 31.1 69.7 28.4 69.7C27.6 69.7 26.6 69.9 25.3 70.2C24 70.6 22.7 71.2 21.5 72.2C20.2999 73.2 19.2 74.6 18.4 76.5C17.5 78.4 17.1 80.8 17.1 83.8V119.4H0.199951V58.1H16.1Z"
		  fill="#0F0F0F"/>
	<path fill-rule="evenodd" clip-rule="evenodd"
		  d="M100.1 75.5C101.6 71.5 103.7 68.1 106.5 65.3C109.3 62.5 112.6 60.3 116.5 58.8C120.4 57.3 124.7 56.5 129.5 56.5C134.3 56.5 138.7 57.3 142.6 58.8C146.5 60.3 149.9 62.5 152.6 65.3C155.4 68.1 157.5 71.5 159 75.5C160.5 79.5 161.3 83.9 161.3 88.8C161.3 93.7 160.5 98.1 159 102.1C157.5 106.1 155.4 109.4 152.6 112.2C149.8 115 146.5 117.2 142.6 118.7C138.7 120.2 134.3 121 129.5 121C124.7 121 120.3 120.2 116.5 118.7C112.6 117.2 109.3 115 106.5 112.2C103.7 109.4 101.6 106 100.1 102.1C98.6 98.1 97.8 93.7 97.8 88.8C97.8 83.9 98.5 79.5 100.1 75.5ZM115.3 96C115.8 98.3 116.6 100.4 117.7 102.3C118.8 104.2 120.4 105.6 122.3 106.7C124.2 107.8 126.6 108.4 129.4 108.4C132.2 108.4 134.6 107.8 136.6 106.7C138.5 105.6 140.1 104.1 141.2 102.3C142.3 100.4 143.2 98.3 143.6 96C144.1 93.7 144.3 91.3 144.3 88.8C144.3 86.3 144.1 83.9 143.6 81.6C143.1 79.2 142.3 77.1 141.2 75.3C140.1 73.5 138.5 72 136.6 70.9C134.7 69.8 132.3 69.2 129.4 69.2C126.5 69.2 124.2 69.8 122.3 70.9C120.4 72 118.9 73.5 117.7 75.3C116.6 77.1 115.7 79.2 115.3 81.6C114.8 84 114.6 86.4 114.6 88.8C114.6 91.2 114.9 93.6 115.3 96Z"
		  fill="#0F0F0F"/>
	<path fill-rule="evenodd" clip-rule="evenodd"
		  d="M158.3 69.4V58.1H168.4V53.4C168.4 47.9 170.1 43.5 173.5 40C176.9 36.5 182 34.8 188.9 34.8C190.4 34.8 191.9 34.9 193.4 35C194.9 35.1 196.4 35.2 197.8 35.3V47.9C195.8 47.7 193.8 47.5 191.6 47.5C189.3 47.5 187.7 48 186.7 49.1C185.7 50.2 185.2 52 185.2 54.5V58.2H196.8V69.5H185.2V119.5H168.4V69.5H158.3V69.4Z"
		  fill="#0F0F0F"/>
	<path fill-rule="evenodd" clip-rule="evenodd"
		  d="M196.7 77C196.9 73 197.9 69.8 199.7 67.2C201.4 64.6 203.7 62.5 206.3 60.9C209 59.3 212 58.2 215.4 57.5C218.8 56.8 222.1 56.5 225.5 56.5C228.6 56.5 231.7 56.7 234.9 57.2C238.1 57.6 240.9 58.5 243.6 59.7C246.2 61 248.3 62.7 250 65C251.7 67.3 252.5 70.2 252.5 74V105.9C252.5 108.7 252.7 111.3 253 113.8C253.3 116.3 253.9 118.2 254.7 119.5H237.6C237.3 118.6 237 117.6 236.8 116.6C236.6 115.6 236.5 114.6 236.4 113.6C233.7 116.4 230.6 118.3 226.9 119.4C223.3 120.5 219.6 121.1 215.8 121.1C212.9 121.1 210.2 120.7 207.6 120C205.1 119.3 202.9 118.2 201 116.7C199.1 115.2 197.6 113.3 196.6 111C195.5 108.7 195 106 195 102.8C195 99.3 195.6 96.5 196.8 94.2C198 91.9 199.6 90.2 201.5 88.8C203.4 87.5 205.6 86.4 208.1 85.8C210.6 85.1 213.1 84.6 215.6 84.2C218.1 83.8 220.6 83.5 223.1 83.3C225.5 83.1 227.7 82.7 229.6 82.2C231.5 81.7 233 81 234.1 80.1C235.2 79.2 235.7 77.9 235.6 76.1C235.6 74.3 235.3 72.8 234.7 71.8C234.1 70.7 233.3 69.9 232.3 69.3C231.3 68.7 230.2 68.3 228.9 68.1C227.6 67.9 226.2 67.8 224.7 67.8C221.4 67.8 218.8 68.5 216.9 69.9C215 71.3 213.9 73.7 213.6 77H196.7ZM235.6 89.4C234.9 90 234 90.5 232.9 90.9C231.8 91.3 230.7 91.6 229.5 91.8C228.3 92 227 92.2 225.6 92.4C224.3 92.6 222.9 92.8 221.6 93C220.3 93.2 219.1 93.6 217.9 93.9C216.7 94.3 215.6 94.8 214.7 95.5C213.8 96.2 213.1 97 212.5 98C211.9 99 211.7 100.3 211.7 101.9C211.7 103.4 212 104.7 212.5 105.7C213.1 106.7 213.8 107.5 214.8 108.1C215.7 108.7 216.9 109.1 218.1 109.3C219.4 109.5 220.7 109.7 222 109.7C225.3 109.7 227.9 109.1 229.7 108C231.5 106.9 232.9 105.6 233.7 104C234.6 102.5 235.1 100.9 235.3 99.3C235.5 97.7 235.6 96.5 235.6 95.5V89.4Z"
		  fill="#0F0F0F"/>
	<path fill-rule="evenodd" clip-rule="evenodd"
		  d="M276.5 34.8V80.2L297.7 58.2H317.6L294.5 80.7L320.2 119.5H299.8L283 92L276.5 98.3V119.4H259.7V34.8H276.5Z" fill="#0F0F0F"/>
	<path fill-rule="evenodd" clip-rule="evenodd"
		  d="M360.5 119.4V110.9H360.1C358 114.5 355.2 117 351.8 118.6C348.4 120.2 344.9 121 341.4 121C336.9 121 333.2 120.4 330.3 119.2C327.4 118 325.1 116.3 323.5 114.2C321.8 112 320.7 109.4 320 106.3C319.3 103.2 319 99.7 319 95.9V58.1H335.8V92.7C335.8 97.8 336.6 101.5 338.2 104C339.8 106.5 342.6 107.7 346.6 107.7C351.2 107.7 354.5 106.3 356.6 103.6C358.7 100.9 359.7 96.4 359.7 90.1V58.1H376.5V119.4H360.5Z"
		  fill="#0F0F0F"/>
	<path fill-rule="evenodd" clip-rule="evenodd" d="M399.9 34.8V119.4H383.1V34.8H399.9Z" fill="#0F0F0F"/>
	<path fill-rule="evenodd" clip-rule="evenodd"
		  d="M440.1 58.1V69.4H427.8V99.7C427.8 102.5 428.3 104.4 429.2 105.4C430.1 106.3 432 106.8 434.9 106.8C435.8 106.8 436.8 106.8 437.6 106.7C438.5 106.6 439.3 106.5 440.1 106.3V119.3C438.7 119.5 437.1 119.7 435.4 119.8C433.7 119.9 432 119.9 430.3 119.9C427.7 119.9 425.2 119.7 422.9 119.4C420.6 119 418.5 118.4 416.7 117.3C414.9 116.3 413.5 114.8 412.5 112.9C411.5 111 411 108.5 411 105.4V69.4H400.8V58.1H411V39.7H427.8V58.1H440.1Z"
		  fill="#0F0F0F"/>
	<path fill-rule="evenodd" clip-rule="evenodd"
		  d="M484.3 0.899994L446.4 8.99999L442.4 47.6L459.2 55.1L457.8 70.6L467.7 58.9L477.8 63.4L503.7 34.6L484.3 0.899994Z"
		  fill="#CD282D"/>
	<path d="M473.4 20.7C472.7 21.3 471.9 22.1 471.3 23C470.6 22.1 469.9 21.3 469.2 20.7C461 13.8 450.2 23.4 457.4 32.5C457.7 32.9 458.1 33.4 458.6 33.8L458.7 33.9L458.8 34L471.5 46.7L484 34L484.1 33.9L484.2 33.8C484.6 33.4 485 32.9 485.4 32.5C492.5 23.4 481.6 13.8 473.4 20.7Z"
		  fill="white"/>
</svg>
